<?xml version="1.0" standalone="no"?>
<!DOCTYPE svg PUBLIC "-//W3C//DTD SVG 20010904//EN"
 "http://www.w3.org/TR/2001/REC-SVG-20010904/DTD/svg10.dtd">
<svg version="1.0" xmlns="http://www.w3.org/2000/svg"
 width="700.000000pt" height="700.000000pt" viewBox="0 0 700.000000 700.000000"
 preserveAspectRatio="xMidYMid meet">
<metadata>
Created by potrace 1.14, written by Peter Selinger 2001-2017
</metadata>
<g transform="translate(0.000000,700.000000) scale(0.100000,-0.100000)"
fill="#000000" stroke="none">
<path d="M2631 6120 c-4 -3 -7 -987 -6 -2187 l0 -2183 437 0 438 0 1 1893 0
1892 46 -150 c25 -82 49 -159 54 -170 4 -11 12 -36 17 -55 6 -19 65 -213 132
-430 67 -217 141 -458 164 -535 173 -567 319 -1043 326 -1060 5 -11 20 -58 34
-105 14 -47 73 -240 131 -430 59 -190 131 -424 160 -520 101 -329 99 -325 120
-322 25 5 845 279 851 285 2 2 -36 136 -87 298 -50 162 -98 317 -106 344 -25
83 -293 956 -313 1020 -35 110 -360 1170 -450 1465 -21 69 -70 226 -108 350
-39 124 -75 244 -81 268 -7 23 -15 42 -19 42 -4 0 -202 -65 -439 -144 l-433
-144 -2 291 -3 292 -428 0 c-236 0 -432 -2 -436 -5z"/>
<path d="M1477 5542 c-12 -2 -17 -14 -17 -35 -1 -18 -2 -870 -3 -1895 l-2
-1862 436 0 c341 0 438 3 441 13 6 21 2 3766 -4 3773 -7 6 -820 12 -851 6z"/>
<path d="M877 1452 c-2 -4 -3 -135 -3 -292 l1 -285 2615 -1 c1438 0 2620 1
2625 3 6 2 10 108 10 291 l0 287 -2622 2 c-1442 1 -2624 -1 -2626 -5z"/>
</g>
</svg>
